<?xml version="1.0" encoding="utf-8" ?>
<svg xmlns="http://www.w3.org/2000/svg" width="1024" height="1024">
	<g/>
	<g>
		<path d="M463.297 393.306Q464.896 393.137 466.503 393.087C503.241 392.104 540.213 402.898 567.182 428.821C594.678 455.251 607.204 490.385 611.019 527.528C611.626 533.431 612.365 539.428 612.46 545.365C612.546 550.783 611.802 556.335 611.292 561.733C608.033 596.272 595.462 630.421 570.75 655.466C547.097 679.437 512.231 694.346 478.375 694.53C443.341 696.526 406.897 686.768 379.656 664.197C349.33 639.07 333.672 601.452 330.227 562.897C326.455 520.679 334.759 475.315 362.675 442.214C389.368 410.564 422.751 396.789 463.297 393.306ZM472.125 636.115C489.219 635.992 505.539 629.546 517.546 617.275C536.236 598.175 542.111 568.643 541.7 542.824C541.305 518.025 535.57 489.389 517.024 471.452C506.15 460.935 488.808 452.809 473.468 453.094Q471.637 453.117 469.82 453.34C451.496 453.935 434.449 460.258 421.809 473.81C403.601 493.333 398.493 523.227 399.522 549.057C400.535 574.472 408.145 602.448 427.386 620.16C439.916 631.695 455.299 636.188 472.125 636.115Z"/>
		<path d="M631.538 392.905C638.187 392.599 645.004 392.894 651.668 392.896L692.817 392.912L817.313 392.956C816.07 411.452 817.04 433.419 817.068 452.259C797.221 452.871 777.318 452.08 757.456 452.566L757.101 633.014L757.162 691.993Q723.809 692.305 690.456 691.981C691.285 680.85 690.936 669.556 690.937 658.398L690.926 605.871L690.834 452.131C671.558 452.123 650.531 451.194 631.464 452.348C632.626 432.584 631.603 412.689 631.538 392.905Z"/>
		<path d="M217.522 395.017Q251.887 394.596 286.252 394.951C285.689 404.223 286.021 413.712 286.019 423.008L286.017 472.017L286.046 622.623L286.097 667.069C286.108 674.984 286.567 683.19 285.947 691.065L244.104 691.037C235.302 691.036 226.306 690.662 217.544 691.482C218.35 680.076 217.93 668.391 217.934 656.955L217.937 597.477L217.522 395.017Z"/>
		<path d="M467.391 292.213Q469.436 292.031 471.49 292.053Q473.707 292.067 475.923 292.126Q478.138 292.184 480.353 292.286Q482.567 292.389 484.779 292.535Q486.991 292.681 489.199 292.871Q491.408 293.062 493.612 293.296Q495.817 293.53 498.016 293.808Q500.215 294.085 502.408 294.407Q504.602 294.728 506.788 295.093Q508.974 295.458 511.153 295.867Q513.332 296.275 515.502 296.726Q517.672 297.178 519.833 297.672Q521.994 298.167 524.145 298.704Q526.295 299.242 528.435 299.822Q530.574 300.402 532.702 301.024Q534.829 301.647 536.944 302.311Q539.059 302.976 541.16 303.682Q543.261 304.388 545.348 305.137Q547.434 305.885 549.506 306.674Q551.577 307.463 553.632 308.294Q555.688 309.124 557.726 309.995Q559.765 310.866 561.785 311.777Q563.806 312.689 565.808 313.64Q567.81 314.591 569.793 315.582Q571.776 316.573 573.739 317.603Q575.702 318.633 577.644 319.702Q579.586 320.771 581.506 321.878Q583.426 322.985 585.324 324.13Q587.222 325.276 589.097 326.458Q590.972 327.641 592.823 328.861Q594.674 330.08 596.5 331.337Q598.327 332.593 600.128 333.885Q601.929 335.177 603.704 336.505C615.196 345.231 625.731 355.204 635.817 365.497Q614.619 386.12 594.781 408.053C587.211 401.753 580.497 394.538 572.694 388.449C542.065 364.546 506.267 351.936 467.404 351.53C429.11 352.32 394.654 365.363 364.682 388.995C356.956 395.087 349.868 401.893 342.566 408.474C328.809 393.641 314.357 379.517 299.889 365.384C306.173 358.243 314.736 351.878 322.113 345.868Q324.912 343.567 327.78 341.354Q330.649 339.141 333.584 337.017Q336.52 334.894 339.52 332.862Q342.52 330.831 345.581 328.893Q348.643 326.955 351.763 325.113Q354.883 323.271 358.058 321.526Q361.233 319.782 364.461 318.136Q367.689 316.49 370.966 314.945Q374.244 313.401 377.567 311.958Q380.891 310.515 384.257 309.176Q387.624 307.836 391.03 306.602Q394.436 305.368 397.879 304.239Q401.322 303.111 404.798 302.089Q408.274 301.068 411.781 300.155Q415.287 299.241 418.819 298.437Q422.352 297.633 425.908 296.938C439.685 294.346 453.437 293.238 467.391 292.213Z"/>
		<path d="M247.357 297.16Q248.245 297.067 249.136 297.018Q250.027 296.968 250.92 296.962Q251.813 296.956 252.705 296.994Q253.597 297.032 254.486 297.114Q255.375 297.195 256.259 297.32Q257.142 297.445 258.019 297.613Q258.896 297.781 259.763 297.992Q260.631 298.203 261.487 298.455Q262.343 298.708 263.186 299.003Q264.029 299.297 264.856 299.633Q265.683 299.968 266.493 300.344Q267.303 300.719 268.093 301.134Q268.884 301.549 269.653 302.001Q270.423 302.454 271.169 302.944Q271.915 303.434 272.636 303.96Q273.358 304.486 274.052 305.047Q274.747 305.607 275.414 306.201Q276.08 306.795 276.717 307.421Q277.353 308.047 277.959 308.703Q278.564 309.359 279.136 310.044Q279.709 310.729 280.247 311.441Q280.785 312.154 281.288 312.891Q281.79 313.629 282.256 314.39Q282.722 315.152 283.15 315.935Q283.579 316.718 283.968 317.522Q284.357 318.325 284.707 319.146Q285.056 319.968 285.365 320.805Q285.674 321.643 285.942 322.495Q286.209 323.346 286.435 324.21Q286.66 325.074 286.843 325.948Q287.026 326.821 287.166 327.703Q287.306 328.585 287.403 329.472Q287.5 330.359 287.553 331.25Q287.606 332.142 287.616 333.034Q287.625 333.927 287.591 334.819Q287.557 335.711 287.479 336.6Q287.401 337.489 287.28 338.374Q287.159 339.258 286.994 340.136Q286.83 341.013 286.623 341.881Q286.416 342.75 286.166 343.607Q285.917 344.464 285.626 345.308Q285.335 346.152 285.003 346.981Q284.671 347.809 284.299 348.621Q283.927 349.432 283.516 350.224Q283.104 351.017 282.655 351.788Q282.205 352.559 281.718 353.307Q281.231 354.055 280.708 354.779Q280.186 355.502 279.628 356.2Q279.07 356.897 278.479 357.565Q277.888 358.234 277.265 358.874Q276.642 359.513 275.988 360.121Q275.334 360.729 274.652 361.304Q273.969 361.879 273.259 362.42Q272.549 362.961 271.814 363.467Q271.078 363.973 270.319 364.442Q269.559 364.911 268.778 365.343Q267.996 365.774 267.194 366.167Q266.393 366.559 265.573 366.912Q264.753 367.265 263.917 367.578Q263.08 367.89 262.23 368.161Q261.379 368.432 260.517 368.662Q259.654 368.891 258.781 369.077Q257.908 369.264 257.027 369.408Q256.146 369.552 255.259 369.652Q254.367 369.753 253.472 369.81Q252.576 369.867 251.679 369.88Q250.781 369.893 249.884 369.861Q248.987 369.83 248.093 369.754Q247.199 369.679 246.309 369.56Q245.42 369.44 244.537 369.277Q243.655 369.114 242.781 368.908Q241.908 368.702 241.046 368.453Q240.184 368.204 239.335 367.913Q238.486 367.622 237.652 367.29Q236.818 366.958 236.002 366.585Q235.186 366.211 234.389 365.799Q233.592 365.386 232.816 364.935Q232.041 364.483 231.288 363.994Q230.536 363.505 229.808 362.98Q229.081 362.454 228.38 361.893Q227.679 361.333 227.007 360.738Q226.335 360.144 225.692 359.517Q225.05 358.89 224.439 358.233Q223.829 357.575 223.251 356.888Q222.673 356.201 222.13 355.487Q221.587 354.772 221.08 354.032Q220.573 353.292 220.102 352.527Q219.632 351.763 219.2 350.976Q218.768 350.19 218.375 349.383Q217.982 348.576 217.63 347.751Q217.277 346.926 216.965 346.084Q216.654 345.242 216.384 344.387Q216.114 343.531 215.887 342.662Q215.659 341.794 215.475 340.916Q215.29 340.038 215.149 339.151Q215.008 338.265 214.911 337.373Q214.814 336.481 214.761 335.585Q214.707 334.689 214.698 333.792Q214.689 332.894 214.724 331.998Q214.759 331.101 214.838 330.207Q214.918 329.313 215.041 328.424Q215.164 327.535 215.33 326.653Q215.497 325.771 215.707 324.899Q215.916 324.026 216.169 323.165Q216.421 322.304 216.716 321.456Q217.01 320.609 217.346 319.776Q217.682 318.944 218.059 318.129Q218.435 317.315 218.851 316.52Q219.267 315.724 219.722 314.951Q220.176 314.177 220.668 313.427Q221.161 312.676 221.689 311.951Q222.218 311.225 222.781 310.527Q223.345 309.829 223.942 309.159Q224.539 308.489 225.169 307.849Q225.798 307.209 226.458 306.602Q227.118 305.994 227.808 305.419Q228.497 304.844 229.214 304.304Q229.93 303.764 230.673 303.26Q231.415 302.756 232.181 302.289Q232.948 301.821 233.736 301.393Q234.524 300.964 235.333 300.574Q236.141 300.185 236.968 299.836Q237.795 299.486 238.638 299.178Q239.481 298.87 240.338 298.604Q241.195 298.337 242.064 298.114Q242.933 297.89 243.812 297.709Q244.691 297.528 245.578 297.391Q246.464 297.254 247.357 297.16Z"/>
	</g>
</svg>
